# Modelo de rueda generado
v -0.35 2.0 0.0
v 0.35 2.0 0.0
v -0.35 1.9659461993678036 0.3674990356331407
v 0.35 1.9659461993678036 0.3674990356331407
v -0.35 1.8649444588087116 0.7224833323743058
v 0.35 1.8649444588087116 0.7224833323743058
v -0.35 1.7004342714592284 1.0528643257547114
v 0.35 1.7004342714592284 1.0528643257547114
v -0.35 1.4780178344413182 1.3473912872931144
v 0.35 1.4780178344413182 1.3473912872931144
v -0.35 1.2052692727585128 1.596034454560479
v 0.35 1.2052692727585128 1.596034454560479
v -0.35 0.8914767115530766 1.7903265827101247
v 0.35 0.8914767115530766 1.7903265827101247
v -0.35 0.547325980144166 1.923651286345638
v 0.35 0.547325980144166 1.923651286345638
v -0.35 0.18453671892660403 1.991468352590069
v 0.35 0.18453671892660403 1.991468352590069
v -0.35 -0.18453671892660378 1.9914683525900692
v 0.35 -0.18453671892660378 1.9914683525900692
v -0.35 -0.5473259801441658 1.923651286345638
v 0.35 -0.5473259801441658 1.923651286345638
v -0.35 -0.8914767115530756 1.7903265827101251
v 0.35 -0.8914767115530756 1.7903265827101251
v -0.35 -1.2052692727585126 1.5960344545604792
v 0.35 -1.2052692727585126 1.5960344545604792
v -0.35 -1.4780178344413186 1.3473912872931142
v 0.35 -1.4780178344413186 1.3473912872931142
v -0.35 -1.700434271459228 1.0528643257547121
v 0.35 -1.700434271459228 1.0528643257547121
v -0.35 -1.8649444588087114 0.7224833323743066
v 0.35 -1.8649444588087114 0.7224833323743066
v -0.35 -1.9659461993678036 0.36749903563314074
v 0.35 -1.9659461993678036 0.36749903563314074
v -0.35 -2.0 2.4492935982947064e-16
v 0.35 -2.0 2.4492935982947064e-16
v -0.35 -1.9659461993678036 -0.36749903563314024
v 0.35 -1.9659461993678036 -0.36749903563314024
v -0.35 -1.8649444588087118 -0.7224833323743054
v 0.35 -1.8649444588087118 -0.7224833323743054
v -0.35 -1.7004342714592282 -1.0528643257547117
v 0.35 -1.7004342714592282 -1.0528643257547117
v -0.35 -1.4780178344413182 -1.3473912872931144
v 0.35 -1.4780178344413182 -1.3473912872931144
v -0.35 -1.2052692727585144 -1.5960344545604779
v 0.35 -1.2052692727585144 -1.5960344545604779
v -0.35 -0.8914767115530777 -1.790326582710124
v 0.35 -0.8914767115530777 -1.790326582710124
v -0.35 -0.5473259801441662 -1.923651286345638
v 0.35 -0.5473259801441662 -1.923651286345638
v -0.35 -0.18453671892660384 -1.9914683525900692
v 0.35 -0.18453671892660384 -1.9914683525900692
v -0.35 0.18453671892660486 -1.991468352590069
v 0.35 0.18453671892660486 -1.991468352590069
v -0.35 0.5473259801441656 -1.923651286345638
v 0.35 0.5473259801441656 -1.923651286345638
v -0.35 0.8914767115530754 -1.7903265827101251
v 0.35 0.8914767115530754 -1.7903265827101251
v -0.35 1.2052692727585124 -1.5960344545604794
v 0.35 1.2052692727585124 -1.5960344545604794
v -0.35 1.478017834441317 -1.3473912872931155
v 0.35 1.478017834441317 -1.3473912872931155
v -0.35 1.7004342714592278 -1.0528643257547123
v 0.35 1.7004342714592278 -1.0528643257547123
v -0.35 1.8649444588087116 -0.7224833323743061
v 0.35 1.8649444588087116 -0.7224833323743061
v -0.35 1.9659461993678036 -0.3674990356331401
v 0.35 1.9659461993678036 -0.3674990356331401
v -0.35 0 0
v 0.35 0 0
vn 0.0 -0.9957341762950346 -0.09226835946330196
vn 0.0 -0.961825643172819 -0.2736629900720829
vn 0.0 -0.8951632913550625 -0.44573835577653814
vn 0.0 -0.7980172272802393 -0.6026346363792564
vn 0.0 -0.6736956436465574 -0.7390089172206592
vn 0.0 -0.5264321628773561 -0.8502171357296141
vn 0.0 -0.3612416661871529 -0.9324722294043558
vn 0.0 -0.1837495178165701 -0.9829730996839018
vn 0.0 -6.016271618369499e-16 -1.0
vn 0.0 0.18374951781657067 -0.9829730996839018
vn 0.0 0.3612416661871526 -0.9324722294043559
vn 0.0 0.5264321628773554 -0.8502171357296143
vn 0.0 0.6736956436465571 -0.7390089172206592
vn 0.0 0.7980172272802397 -0.6026346363792562
vn 0.0 0.8951632913550621 -0.4457383557765387
vn 0.0 0.9618256431728192 -0.27366299007208295
vn 0.0 0.9957341762950346 -0.09226835946330199
vn -0.0 0.9957341762950346 0.09226835946330202
vn -0.0 0.9618256431728193 0.27366299007208233
vn -0.0 0.8951632913550623 0.44573835577653836
vn -0.0 0.7980172272802396 0.6026346363792564
vn -0.0 0.6736956436465578 0.7390089172206586
vn -0.0 0.5264321628773564 0.8502171357296139
vn -0.0 0.36124166618715364 0.9324722294043554
vn -0.0 0.18374951781657042 0.9829730996839016
vn 0.0 -6.016271618369484e-16 1.0
vn 0.0 -0.18374951781657067 0.9829730996839018
vn 0.0 -0.3612416661871526 0.9324722294043559
vn 0.0 -0.5264321628773551 0.8502171357296147
vn 0.0 -0.6736956436465573 0.7390089172206591
vn 0.0 -0.7980172272802392 0.602634636379257
vn 0.0 -0.8951632913550619 0.4457383557765388
vn 0.0 -0.9618256431728193 0.27366299007208233
vn 0.0 -0.9957341762950346 0.0922683594633021
vn 0.0 1.0 0.0
vn 0.0 -1.0 0.0
vn -1.0 0.0 0.0
vn 1.0 0.0 0.0
f 2//0 3//0 4//0
f 1//39 3//39 2//39
f 69//37 3//37 1//37
f 68//38 2//38 4//38
f 68//38 2//38 4//38
f 69//37 3//37 1//37
f 1//38 3//38 69//38
f 4//37 2//37 68//37
f 4//0 5//0 6//0
f 3//40 5//40 4//40
f 69//37 5//37 3//37
f 68//38 4//38 6//38
f 68//38 4//38 6//38
f 69//37 5//37 3//37
f 3//38 5//38 69//38
f 6//37 4//37 68//37
f 6//0 7//0 8//0
f 5//41 7//41 6//41
f 69//37 7//37 5//37
f 68//38 6//38 8//38
f 68//38 6//38 8//38
f 69//37 7//37 5//37
f 5//38 7//38 69//38
f 8//37 6//37 68//37
f 8//0 9//0 10//0
f 7//42 9//42 8//42
f 69//37 9//37 7//37
f 68//38 8//38 10//38
f 68//38 8//38 10//38
f 69//37 9//37 7//37
f 7//38 9//38 69//38
f 10//37 8//37 68//37
f 10//0 11//0 12//0
f 9//43 11//43 10//43
f 69//37 11//37 9//37
f 68//38 10//38 12//38
f 68//38 10//38 12//38
f 69//37 11//37 9//37
f 9//38 11//38 69//38
f 12//37 10//37 68//37
f 12//0 13//0 14//0
f 11//44 13//44 12//44
f 69//37 13//37 11//37
f 68//38 12//38 14//38
f 68//38 12//38 14//38
f 69//37 13//37 11//37
f 11//38 13//38 69//38
f 14//37 12//37 68//37
f 14//0 15//0 16//0
f 13//45 15//45 14//45
f 69//37 15//37 13//37
f 68//38 14//38 16//38
f 68//38 14//38 16//38
f 69//37 15//37 13//37
f 13//38 15//38 69//38
f 16//37 14//37 68//37
f 16//0 17//0 18//0
f 15//46 17//46 16//46
f 69//37 17//37 15//37
f 68//38 16//38 18//38
f 68//38 16//38 18//38
f 69//37 17//37 15//37
f 15//38 17//38 69//38
f 18//37 16//37 68//37
f 18//0 19//0 20//0
f 17//47 19//47 18//47
f 69//37 19//37 17//37
f 68//38 18//38 20//38
f 68//38 18//38 20//38
f 69//37 19//37 17//37
f 17//38 19//38 69//38
f 20//37 18//37 68//37
f 20//27 21//27 22//27
f 19//27 21//27 20//27
f 69//37 21//37 19//37
f 68//38 20//38 22//38
f 68//38 20//38 22//38
f 69//37 21//37 19//37
f 19//38 21//38 69//38
f 22//37 20//37 68//37
f 22//28 23//28 24//28
f 21//28 23//28 22//28
f 69//37 23//37 21//37
f 68//38 22//38 24//38
f 68//38 22//38 24//38
f 69//37 23//37 21//37
f 21//38 23//38 69//38
f 24//37 22//37 68//37
f 24//0 25//0 26//0
f 23//48 25//48 24//48
f 69//37 25//37 23//37
f 68//38 24//38 26//38
f 68//38 24//38 26//38
f 69//37 25//37 23//37
f 23//38 25//38 69//38
f 26//37 24//37 68//37
f 26//0 27//0 28//0
f 25//49 27//49 26//49
f 69//37 27//37 25//37
f 68//38 26//38 28//38
f 68//38 26//38 28//38
f 69//37 27//37 25//37
f 25//38 27//38 69//38
f 28//37 26//37 68//37
f 28//0 29//0 30//0
f 27//50 29//50 28//50
f 69//37 29//37 27//37
f 68//38 28//38 30//38
f 68//38 28//38 30//38
f 69//37 29//37 27//37
f 27//38 29//38 69//38
f 30//37 28//37 68//37
f 30//0 31//0 32//0
f 29//51 31//51 30//51
f 69//37 31//37 29//37
f 68//38 30//38 32//38
f 68//38 30//38 32//38
f 69//37 31//37 29//37
f 29//38 31//38 69//38
f 32//37 30//37 68//37
f 32//0 33//0 34//0
f 31//52 33//52 32//52
f 69//37 33//37 31//37
f 68//38 32//38 34//38
f 68//38 32//38 34//38
f 69//37 33//37 31//37
f 31//38 33//38 69//38
f 34//37 32//37 68//37
f 34//0 35//0 36//0
f 33//53 35//53 34//53
f 69//37 35//37 33//37
f 68//38 34//38 36//38
f 68//38 34//38 36//38
f 69//37 35//37 33//37
f 33//38 35//38 69//38
f 36//37 34//37 68//37
f 36//0 37//0 38//0
f 35//54 37//54 36//54
f 69//37 37//37 35//37
f 68//38 36//38 38//38
f 68//38 36//38 38//38
f 69//37 37//37 35//37
f 35//38 37//38 69//38
f 38//37 36//37 68//37
f 38//0 39//0 40//0
f 37//55 39//55 38//55
f 69//37 39//37 37//37
f 68//38 38//38 40//38
f 68//38 38//38 40//38
f 69//37 39//37 37//37
f 37//38 39//38 69//38
f 40//37 38//37 68//37
f 40//0 41//0 42//0
f 39//56 41//56 40//56
f 69//37 41//37 39//37
f 68//38 40//38 42//38
f 68//38 40//38 42//38
f 69//37 41//37 39//37
f 39//38 41//38 69//38
f 42//37 40//37 68//37
f 42//0 43//0 44//0
f 41//57 43//57 42//57
f 69//37 43//37 41//37
f 68//38 42//38 44//38
f 68//38 42//38 44//38
f 69//37 43//37 41//37
f 41//38 43//38 69//38
f 44//37 42//37 68//37
f 44//0 45//0 46//0
f 43//58 45//58 44//58
f 69//37 45//37 43//37
f 68//38 44//38 46//38
f 68//38 44//38 46//38
f 69//37 45//37 43//37
f 43//38 45//38 69//38
f 46//37 44//37 68//37
f 46//0 47//0 48//0
f 45//59 47//59 46//59
f 69//37 47//37 45//37
f 68//38 46//38 48//38
f 68//38 46//38 48//38
f 69//37 47//37 45//37
f 45//38 47//38 69//38
f 48//37 46//37 68//37
f 48//0 49//0 50//0
f 47//60 49//60 48//60
f 69//37 49//37 47//37
f 68//38 48//38 50//38
f 68//38 48//38 50//38
f 69//37 49//37 47//37
f 47//38 49//38 69//38
f 50//37 48//37 68//37
f 50//0 51//0 52//0
f 49//61 51//61 50//61
f 69//37 51//37 49//37
f 68//38 50//38 52//38
f 68//38 50//38 52//38
f 69//37 51//37 49//37
f 49//38 51//38 69//38
f 52//37 50//37 68//37
f 52//0 53//0 54//0
f 51//62 53//62 52//62
f 69//37 53//37 51//37
f 68//38 52//38 54//38
f 68//38 52//38 54//38
f 69//37 53//37 51//37
f 51//38 53//38 69//38
f 54//37 52//37 68//37
f 54//10 55//10 56//10
f 53//10 55//10 54//10
f 69//37 55//37 53//37
f 68//38 54//38 56//38
f 68//38 54//38 56//38
f 69//37 55//37 53//37
f 53//38 55//38 69//38
f 56//37 54//37 68//37
f 56//11 57//11 58//11
f 55//11 57//11 56//11
f 69//37 57//37 55//37
f 68//38 56//38 58//38
f 68//38 56//38 58//38
f 69//37 57//37 55//37
f 55//38 57//38 69//38
f 58//37 56//37 68//37
f 58//0 59//0 60//0
f 57//63 59//63 58//63
f 69//37 59//37 57//37
f 68//38 58//38 60//38
f 68//38 58//38 60//38
f 69//37 59//37 57//37
f 57//38 59//38 69//38
f 60//37 58//37 68//37
f 60//0 61//0 62//0
f 59//64 61//64 60//64
f 69//37 61//37 59//37
f 68//38 60//38 62//38
f 68//38 60//38 62//38
f 69//37 61//37 59//37
f 59//38 61//38 69//38
f 62//37 60//37 68//37
f 62//0 63//0 64//0
f 61//65 63//65 62//65
f 69//37 63//37 61//37
f 68//38 62//38 64//38
f 68//38 62//38 64//38
f 69//37 63//37 61//37
f 61//38 63//38 69//38
f 64//37 62//37 68//37
f 64//0 65//0 66//0
f 63//66 65//66 64//66
f 69//37 65//37 63//37
f 68//38 64//38 66//38
f 68//38 64//38 66//38
f 69//37 65//37 63//37
f 63//38 65//38 69//38
f 66//37 64//37 68//37
f 66//0 67//0 68//0
f 65//67 67//67 66//67
f 69//37 67//37 65//37
f 68//0 66//0 68//0
f 68//68 66//68 68//68
f 69//37 67//37 65//37
f 65//38 67//38 69//38
f 68//68 66//68 68//68
f 68//0 1//0 2//0
f 67//69 1//69 68//69
f 69//37 1//37 67//37
f 68//68 68//68 2//68
f 68//68 68//68 2//68
f 69//37 1//37 67//37
f 67//38 1//38 69//38
f 2//68 68//68 68//68
